<svg xmlns="http://www.w3.org/2000/svg" xmlns:xlink="http://www.w3.org/1999/xlink" width="1922" height="2040" viewBox="0 0 1922 2040"><defs><style>.a{fill:#fff;}.b{clip-path:url(#a);}.c{fill:url(#b);}.d{opacity:0.67;fill:url(#c);}.e{opacity:0.686;fill:url(#d);}.f{fill:#20d2dc;}.g{opacity:0.597;fill:url(#e);}.h{fill:url(#i);}</style><clipPath id="a"><path class="a" d="M0,0H1920l1.333,1647-1922,393Z"/></clipPath><linearGradient id="b" x1="0.991" y1="0.016" x2="0.5" y2="0.649" gradientUnits="objectBoundingBox"><stop offset="0" stop-color="#e3ff50"/><stop offset="1" stop-color="#0b6af5"/></linearGradient><radialGradient id="c" cx="1017.091" cy="-567.239" r="1660.936" gradientTransform="translate(82.85 -46.206) scale(0.919 0.919)" gradientUnits="userSpaceOnUse"><stop offset="0" stop-color="#b949be" stop-opacity="0"/><stop offset="0.611" stop-color="#0b6af5" stop-opacity="0.11"/><stop offset="1" stop-color="#0344a4"/></radialGradient><radialGradient id="d" cx="0.5" cy="0.5" r="0.61" gradientTransform="matrix(-0.764, 0.645, 0.681, 0.806, 0.541, -0.226)" gradientUnits="objectBoundingBox"><stop offset="0" stop-color="#39f0f6" stop-opacity="0.8"/><stop offset="1" stop-color="#7f46ca" stop-opacity="0"/></radialGradient><linearGradient id="e" x1="-0.128" y1="0.098" x2="0.545" y2="0.622" gradientUnits="objectBoundingBox"><stop offset="0" stop-color="#0b6af5" stop-opacity="0"/><stop offset="0.577" stop-color="#0b6af5" stop-opacity="0.341"/><stop offset="1" stop-color="#053c8d" stop-opacity="0.278"/></linearGradient><linearGradient id="i" x1="1.129" y1="0.099" x2="0.447" y2="0.63" xlink:href="#e"/></defs><g class="b" transform="translate(0.667)"><path class="c" d="M0,0H1921.806L1920,1645.008l-1923,395Z" transform="translate(0 0.992)"/><path class="d" d="M1840.354,1258.335s346.814-66.51-204.192,439.538c-176.432,162.037-362.016,59.529-362.016,59.529L0,0Z" transform="translate(815.266 -462.944)"/><circle class="e" cx="928.623" cy="928.623" r="928.623" transform="translate(394.871 -523)"/><circle class="f" cx="7.507" cy="7.507" r="7.507" transform="translate(333.313 106.091)"/><path class="g" d="M0,0H58.555V58.555H0Z" transform="translate(84.83 259.119) rotate(45)"/><rect class="g" width="22.601" height="22.601" transform="translate(622.552 199.178) rotate(45)"/><rect class="g" width="11.301" height="11.301" transform="translate(411.87 264.223) rotate(45)"/><rect class="g" width="22.601" height="22.601" transform="translate(85.047 1033.963) rotate(45)"/><path class="h" d="M-1672.062,1393.227s-346.814-66.51,204.192,439.538S618.133,0,618.133,0Z" transform="translate(1605.87 259.235)"/></g></svg>