<svg xmlns="http://www.w3.org/2000/svg" width="219.513" height="71.181" viewBox="0 0 219.513 71.181"><defs><style>.a{fill:#fff;}.b{fill:#0b6af5;opacity:0;}</style></defs><g transform="translate(-697.513 -75)"><g transform="translate(788.738 75.256)"><g transform="translate(0 0)"><g transform="translate(0 3.706)"><rect class="a" width="6.358" height="6.318" transform="translate(20.351)"/><rect class="a" width="6.318" height="6.318" transform="translate(13.111)"/><path class="a" d="M552.986,422.8v19.6H522.03a9.985,9.985,0,0,1-3.629-.648,7.844,7.844,0,0,1-2.934-1.994,9.007,9.007,0,0,1-1.9-3.333,14.589,14.589,0,0,1-.655-4.595v-3.585h6.826v2.989a11.642,11.642,0,0,0,.179,2.14,3.686,3.686,0,0,0,.563,1.423,2.308,2.308,0,0,0,1.013.812,4.454,4.454,0,0,0,1.771.3H545.48V422.8Z" transform="translate(-512.91 -414.199)"/></g><g transform="translate(43.724 0)"><rect class="a" width="7.507" height="31.907"/></g><g transform="translate(53.389 10.261)"><path class="a" d="M677.979,429.692v9.164H658.85v-6.49h11.578v-2.674a9.148,9.148,0,0,0-.355-2.623,6.16,6.16,0,0,0-.969-2,4.273,4.273,0,0,0-1.434-1.237,3.859,3.859,0,0,0-1.833-.428h-5.114v-6.19h5.114a14.324,14.324,0,0,1,4.642.743,10.523,10.523,0,0,1,6.53,6.182A14.567,14.567,0,0,1,677.979,429.692Z" transform="translate(-658.85 -417.21)"/></g><g transform="translate(74.673 0)"><path class="a" d="M769.932,406.036a9.56,9.56,0,0,0-2.125-3.618c-1.895-1.99-4.953-3-9.087-3h-5.026l10.089-10.261h-8.476L744.661,399.85v5.762h14.1a4,4,0,0,1,3.238,1.28c.757.878,1.141,2.378,1.141,4.459v3.227H739.521c.011-.23.018-.461.026-.691.015-.49.022-1.01.022-1.555A24.927,24.927,0,0,0,739,406.76a11.407,11.407,0,0,0-1.939-4.324,9.017,9.017,0,0,0-3.541-2.78,12.771,12.771,0,0,0-5.2-.958A12.414,12.414,0,0,0,723.1,399.7a9.639,9.639,0,0,0-3.541,2.718,10.688,10.688,0,0,0-1.946,3.841,16.3,16.3,0,0,0-.578,4.32,12.527,12.527,0,0,0,.706,4.317,9.361,9.361,0,0,0,2.034,3.325,9,9,0,0,0,3.2,2.107,11.185,11.185,0,0,0,4.119.735h4.394a4.99,4.99,0,0,1-1.789,2.938,7.9,7.9,0,0,1-4.778,1.218,6.942,6.942,0,0,1-1.5-.154,10.018,10.018,0,0,1-1.507-.476l-1-.4v6.146l.483.176c.329.121.7.238,1.138.362a11.088,11.088,0,0,0,1.324.23,14.572,14.572,0,0,0,1.7.088c3.878,0,6.958-.915,9.149-2.718a12.628,12.628,0,0,0,4.141-7.412h31.8V410.927A15.421,15.421,0,0,0,769.932,406.036Zm-41.613-1.149a3.335,3.335,0,0,1,1.8.439,3.113,3.113,0,0,1,1.119,1.284,7.6,7.6,0,0,1,.655,2.29,23.275,23.275,0,0,1,.2,3.26v2.418h-3.783a6.462,6.462,0,0,1-2-.256,2.3,2.3,0,0,1-1.057-.688,2.789,2.789,0,0,1-.549-1.2,9.249,9.249,0,0,1-.176-1.932,10.969,10.969,0,0,1,.219-2.2,5.679,5.679,0,0,1,.677-1.811,3.367,3.367,0,0,1,1.145-1.178A3.234,3.234,0,0,1,728.319,404.887Z" transform="translate(-717.03 -389.16)"/></g></g><g transform="translate(18.708 35.035)"><g transform="translate(0 14.816)"><path class="a" d="M581.386,542.507l.659.86-.852.669a10.946,10.946,0,0,1-2.978,1.657,10.691,10.691,0,0,1-7.734-.212,10.593,10.593,0,0,1-5.594-5.572,10.253,10.253,0,0,1,0-8.118,10.485,10.485,0,0,1,2.257-3.3,10.882,10.882,0,0,1,3.336-2.228,10.344,10.344,0,0,1,4.116-.834,10.7,10.7,0,0,1,3.677.618,11.675,11.675,0,0,1,3.033,1.646l.926.7-3.79,4.478-.838-.688a4.142,4.142,0,0,0-1.317-.724,5.167,5.167,0,0,0-1.69-.263,4.835,4.835,0,0,0-3.428,1.35,4.121,4.121,0,0,0-.962,1.438,5.224,5.224,0,0,0,0,3.728,4.372,4.372,0,0,0,.973,1.467,4.545,4.545,0,0,0,1.5,1,4.918,4.918,0,0,0,1.917.362,5.269,5.269,0,0,0,1.69-.26,4.145,4.145,0,0,0,1.317-.724l.849-.7.7.845q.6.73,1.134,1.39C580.643,541.548,581.013,542.017,581.386,542.507Z" transform="translate(-564.049 -525.43)"/></g><g transform="translate(17.069 14.816)"><path class="a" d="M630.979,531.814a10.061,10.061,0,0,0-2.195-3.318,10.691,10.691,0,0,0-3.322-2.232,10.8,10.8,0,0,0-8.323,0,10.972,10.972,0,0,0-3.336,2.228,10.544,10.544,0,0,0-2.257,3.3,10.049,10.049,0,0,0-.838,4.061,10.6,10.6,0,0,0,.838,4.244,10,10,0,0,0,5.626,5.462,11.11,11.11,0,0,0,4.086.757,10.439,10.439,0,0,0,7.532-3.095,10.358,10.358,0,0,0,2.188-3.333,10.752,10.752,0,0,0,0-8.074Zm-9.8-.615a4.725,4.725,0,0,1,3.333,1.361,5,5,0,0,1,1.024,1.518,4.43,4.43,0,0,1,.377,1.815,4.231,4.231,0,0,1-.373,1.785,5.032,5.032,0,0,1-1.028,1.5,4.6,4.6,0,0,1-1.5,1,4.768,4.768,0,0,1-3.633,0,4.665,4.665,0,0,1-1.489-1,4.6,4.6,0,0,1-1-1.485,4.547,4.547,0,0,1-.359-1.8,4.726,4.726,0,0,1,.359-1.829,4.638,4.638,0,0,1,1-1.5,4.787,4.787,0,0,1,1.489-1A4.538,4.538,0,0,1,621.175,531.2Z" transform="translate(-610.709 -525.43)"/></g><g transform="translate(38.613 0)"><path class="a" d="M684.967,484.93v16.287c-.117-.077-.238-.154-.358-.23a9.128,9.128,0,0,0-4.716-1.24,10.753,10.753,0,0,0-4.053.761,9.849,9.849,0,0,0-3.281,2.158,10,10,0,0,0-2.177,3.318,11.166,11.166,0,0,0-.783,4.225,11.643,11.643,0,0,0,.684,3.991,9.647,9.647,0,0,0,2.016,3.336,9.753,9.753,0,0,0,3.212,2.257,11.284,11.284,0,0,0,6.8.549,8.508,8.508,0,0,0,2.027-.787c.219-.121.428-.245.626-.377v1.028h5.857V484.93Zm0,25.239a4.95,4.95,0,0,1-.344,1.862,4.378,4.378,0,0,1-.973,1.467,4.514,4.514,0,0,1-1.514,1,5.106,5.106,0,0,1-1.946.362,4.9,4.9,0,0,1-1.917-.362,4.427,4.427,0,0,1-2.455-2.455,4.789,4.789,0,0,1-.362-1.873,4.618,4.618,0,0,1,1.339-3.315,4.591,4.591,0,0,1,1.478-.977,4.959,4.959,0,0,1,1.917-.362,5.108,5.108,0,0,1,1.946.366,4.8,4.8,0,0,1,1.525.984,4.158,4.158,0,0,1,.962,1.438A4.969,4.969,0,0,1,684.967,510.169Z" transform="translate(-669.599 -484.93)"/></g><g transform="translate(61.518 14.816)"><path class="a" d="M747.819,525.9l-.069,1.042c-.121-.084-.245-.165-.377-.245a8.965,8.965,0,0,0-2.085-.9,9.281,9.281,0,0,0-2.656-.366,9.75,9.75,0,0,0-4.053.863,10.876,10.876,0,0,0-5.535,5.652,10.352,10.352,0,0,0-.834,4.119,9.944,9.944,0,0,0,.79,3.918,10.231,10.231,0,0,0,5.469,5.5,10.579,10.579,0,0,0,4.2.834,9.526,9.526,0,0,0,2.649-.344,9.907,9.907,0,0,0,1.983-.79q.143-.077.274-.154v.863h5.857V525.9Zm-.241,9.954a4.951,4.951,0,0,1-.344,1.862,4.377,4.377,0,0,1-.973,1.467,4.517,4.517,0,0,1-1.515,1,5.107,5.107,0,0,1-1.946.362,4.906,4.906,0,0,1-1.917-.362,4.428,4.428,0,0,1-2.455-2.455,4.79,4.79,0,0,1-.362-1.873,4.616,4.616,0,0,1,1.339-3.314,4.587,4.587,0,0,1,1.478-.977,4.959,4.959,0,0,1,1.917-.362,5.107,5.107,0,0,1,1.946.366,4.868,4.868,0,0,1,1.526.984,4.174,4.174,0,0,1,.962,1.438A4.969,4.969,0,0,1,747.577,535.852Z" transform="translate(-732.209 -525.43)"/></g><g transform="translate(82.551 7.452)"><path class="a" d="M806.73,513.176V518.6h-4.767v14.52h-5.817V518.6h-4.616l-.021-5.474h4.65l-.012-7.832h5.817v7.876Z" transform="translate(-791.51 -505.3)"/></g></g></g><g transform="translate(697.513 75)"><path class="b" d="M0,0H72.877V71.1H0Z" transform="translate(0.288)"/><path class="a" d="M73.1,70.925H20.4l25.788-25.65.049.043.044-.043,7.611,6.941V18.147H19.927l5.79,6.5-.425.518v.007L1.447,53.159.031,52.2v-.04L0,52.139V0H73.1V70.924Z" transform="translate(0 0.256)"/></g></g></svg>