<svg xmlns="http://www.w3.org/2000/svg" width="23.146" height="23.145" viewBox="0 0 23.146 23.145"><defs><style>.a{fill:#fff;}</style></defs><path class="a" d="M678.865,5581h-20.59a1.278,1.278,0,0,0-1.278,1.278v20.589a1.278,1.278,0,0,0,1.278,1.277h11.085v-8.962h-3.016v-3.494h3.016v-2.576c0-2.989,1.826-4.617,4.493-4.617a24.578,24.578,0,0,1,2.695.138v3.124H674.7c-1.45,0-1.73.689-1.73,1.7v2.229h3.46l-.452,3.493h-3.008v8.964h5.9a1.279,1.279,0,0,0,1.279-1.277v-20.59A1.279,1.279,0,0,0,678.865,5581Z" transform="translate(-656.997 -5581)"/></svg>