<svg xmlns="http://www.w3.org/2000/svg" xmlns:xlink="http://www.w3.org/1999/xlink" width="1920" height="505.058" viewBox="0 0 1920 505.058"><defs><style>.a{fill:#fff;}.b{clip-path:url(#a);}.c{clip-path:url(#b);}.d{fill:url(#c);}.e{opacity:0.67;fill:url(#d);}.f{opacity:0.686;fill:url(#e);}.g{fill:#20d2dc;}.h{opacity:0.597;fill:url(#f);}.i{fill:url(#l);}.j{opacity:0.87;}.k{fill:none;stroke:#20d2dc;stroke-miterlimit:10;stroke-width:3px;}.k,.m{opacity:0.5;}.l{opacity:0.89;}.m{fill:url(#m);}</style><clipPath id="a"><rect class="a" width="1920" height="504" transform="translate(0 4252)"/></clipPath><clipPath id="b"><path class="a" d="M0,0H1920l1.333,1647-1922,393Z"/></clipPath><linearGradient id="c" x1="0.991" y1="0.016" x2="0.5" y2="0.649" gradientUnits="objectBoundingBox"><stop offset="0" stop-color="#e3ff50"/><stop offset="1" stop-color="#0b6af5"/></linearGradient><radialGradient id="d" cx="1017.091" cy="-567.239" r="1660.936" gradientTransform="translate(82.85 -46.206) scale(0.919 0.919)" gradientUnits="userSpaceOnUse"><stop offset="0" stop-color="#b949be" stop-opacity="0"/><stop offset="0.611" stop-color="#0b6af5" stop-opacity="0.11"/><stop offset="1" stop-color="#0344a4"/></radialGradient><radialGradient id="e" cx="0.5" cy="0.5" r="0.61" gradientTransform="matrix(-0.764, 0.645, 0.681, 0.806, 0.541, -0.226)" gradientUnits="objectBoundingBox"><stop offset="0" stop-color="#39f0f6" stop-opacity="0.8"/><stop offset="1" stop-color="#7f46ca" stop-opacity="0"/></radialGradient><linearGradient id="f" x1="-0.128" y1="0.098" x2="0.545" y2="0.622" gradientUnits="objectBoundingBox"><stop offset="0" stop-color="#0b6af5" stop-opacity="0"/><stop offset="0.577" stop-color="#0b6af5" stop-opacity="0.341"/><stop offset="1" stop-color="#053c8d" stop-opacity="0.278"/></linearGradient><linearGradient id="l" x1="1.129" y1="0.099" x2="0.447" y2="0.63" xlink:href="#f"/><linearGradient id="m" x1="0.5" y1="0" x2="0.5" y2="1" xlink:href="#f"/></defs><g transform="translate(0 -4055)"><g class="b" transform="translate(0 -197)"><g class="c" transform="translate(0 3967)"><path class="d" d="M0,0H1921.806L1920,1645.008l-1923,395Z" transform="translate(0 0.992)"/><path class="e" d="M1840.354,1258.335s346.814-66.51-204.192,439.538c-176.432,162.037-362.016,59.529-362.016,59.529L0,0Z" transform="translate(815.266 -462.944)"/><circle class="f" cx="928.623" cy="928.623" r="928.623" transform="translate(394.871 -523)"/><circle class="g" cx="7.507" cy="7.507" r="7.507" transform="translate(333.313 106.091)"/><path class="h" d="M0,0H58.555V58.555H0Z" transform="translate(84.83 259.119) rotate(45)"/><rect class="h" width="22.601" height="22.601" transform="translate(622.552 199.178) rotate(45)"/><rect class="h" width="11.301" height="11.301" transform="translate(411.87 264.223) rotate(45)"/><rect class="h" width="58.555" height="58.555" transform="translate(786.104 1024.954) rotate(45)"/><rect class="h" width="32.462" height="32.462" transform="translate(667.06 946.881) rotate(45)"/><rect class="h" width="22.601" height="22.601" transform="translate(85.047 1033.963) rotate(45)"/><path class="i" d="M-1672.062,1393.227s-346.814-66.51,204.192,439.538S618.133,0,618.133,0Z" transform="translate(1605.87 259.235)"/></g></g><g class="j"><path class="k" d="M0,31.095,30.557.375,60.608,30.586,91.032,0l32.906,33.081,30.876-31.04,33.121,33.3" transform="translate(216.817 4523.662)"/><path class="k" d="M0,22.819,22.425.275l22.053,22.17L66.8,0,90.953,24.277,113.612,1.5l24.306,24.435" transform="translate(1598.429 4472.856)"/><path class="k" d="M0,31.095,30.557.375,60.608,30.586,91.032,0l32.906,33.081,30.876-31.04,33.121,33.3" transform="translate(236.664 4212.409)"/></g><g class="l"><path class="m" d="M37.84,65.889H0L18.92,32.945,37.84,0,56.76,32.945,75.68,65.889Z" transform="translate(1840.102 4366.135) rotate(90)"/><ellipse class="m" cx="57.556" cy="57.861" rx="57.556" ry="57.861" transform="translate(331.928 4308.179)"/><ellipse class="m" cx="25.663" cy="25.895" rx="25.663" ry="25.895" transform="translate(480.917 4071.657)"/><ellipse class="m" cx="32.042" cy="32.212" rx="32.042" ry="32.212" transform="translate(1474.08 4225.583)"/></g></g></svg>