<svg xmlns="http://www.w3.org/2000/svg" width="23.145" height="23.145" viewBox="0 0 23.145 23.145"><defs><style>.a{fill:#fff;}</style></defs><path class="a" d="M617.643,5588.984c0-1.157-.694-3.471-2.43-3.471-.695,0-1.5.463-1.5,1.968,0,1.388.694,3.355,2.314,3.355A1.77,1.77,0,0,0,617.643,5588.984Zm-.694,5.671H616.6a8.565,8.565,0,0,0-2.083.348,2.106,2.106,0,0,0-1.736,1.967c0,1.273,1.157,2.546,3.472,2.546a2.53,2.53,0,0,0,2.777-2.314C619.031,5596.392,618.453,5595.813,616.948,5594.655ZM627.827,5581H609.31a2.321,2.321,0,0,0-2.314,2.314v18.516a2.321,2.321,0,0,0,2.314,2.314h18.516a2.321,2.321,0,0,0,2.315-2.314v-18.516A2.321,2.321,0,0,0,627.827,5581Zm-12.614,19.9c-3.24,0-4.745-1.851-4.745-3.472a3.05,3.05,0,0,1,1.736-2.777,7.749,7.749,0,0,1,3.588-1.042,1.534,1.534,0,0,1-.347-1.157,1.045,1.045,0,0,1,.116-.578H615.1a3.537,3.537,0,0,1-3.7-3.472c0-1.967,1.5-4.166,4.745-4.166H621l-.347.348-.81.81-.116.116h-.81a3.59,3.59,0,0,1-.81,5.67.975.975,0,0,0-.463.811.78.78,0,0,0,.463.693,2.529,2.529,0,0,0,.579.348c.926.694,2.2,1.5,2.2,3.356C620.883,5598.475,619.379,5600.9,615.213,5600.9Zm11.457-8.332h-2.315v2.314H623.2v-2.314h-2.314v-1.157H623.2V5589.1h1.157v2.314h2.315Z" transform="translate(-606.996 -5581)"/></svg>