<svg xmlns="http://www.w3.org/2000/svg" xmlns:xlink="http://www.w3.org/1999/xlink" width="818.707" height="775.811" viewBox="0 0 818.707 775.811"><defs><style>.a{fill:rgba(228,255,80,0.6);}.b{fill:#d0c6ac;}.c{fill:#e6e6e6;}.d{fill:none;}.e{fill:#314756;}.f{fill:#28354b;}.g{fill:#b7c1db;}.h{clip-path:url(#a);}.i{clip-path:url(#b);}.j{fill:rgba(0,0,0,0);}.k{fill:#edb98a;}.l{fill:rgba(0,0,0,0.1);}.m{clip-path:url(#c);}.n{fill:#25557c;}.o{fill:#fff;}.p{fill:rgba(0,0,0,0.6);}.q{fill:rgba(0,0,0,0.16);}.r{fill:rgba(0,0,0,0.7);}.s{clip-path:url(#d);}.t{clip-path:url(#e);}.u{fill:#4a312c;}.v{clip-path:url(#f);}.w{fill:rgba(255,255,255,0.1);}.x{clip-path:url(#g);}.y{clip-path:url(#h);}.z{fill:#d08b5b;}.aa{clip-path:url(#i);}.ab{fill:#3c4f5c;}.ac{fill:#f2f2f2;}.ad{clip-path:url(#j);}.ae{clip-path:url(#k);}.af{fill:#724133;}.ag{fill:#252c2f;}.ah{clip-path:url(#l);}.ai{clip-path:url(#m);}.aj{fill:#ae5d29;}.ak{clip-path:url(#n);}.al{fill:#65c9ff;}.am{fill:#f4f4f4;}.an{clip-path:url(#o);}.ao{clip-path:url(#p);}.ap{fill:#2c1b18;}.aq{fill:#92d9ff;}.ar{fill:#002254;}.as{fill:#3f3d56;}.at{fill:#0b6af5;}.au{fill:#aecfff;}.av{fill:#6c63ff;}.av,.aw{opacity:0.3;}.aw,.ax{fill:#e4ff50;}.ay,.az,.ba{fill:#20d2dc;}.ay{opacity:0.79;}.az{opacity:0.29;}.bb{filter:url(#q);}</style><clipPath id="a"><path class="a" d="M255.891,67.851c3.517,55.47-40.228,53.806-77.021,65.836C114.785,154.639,117.837,258.2,67.752,251.175c-37.095-5.2-76.007-75.142-66.221-135.326,8.522-52.412,42.427-85.765,99.7-107.095C162.225-13.963,252.105,8.156,255.891,67.851Z" transform="matrix(-0.259, -0.966, 0.966, -0.259, 66.281, 312.461)"/></clipPath><clipPath id="b"><path class="b" d="M0,136.163A45.2,45.2,0,0,1,42.412,91.046V80.7A31.273,31.273,0,0,1,24.724,55.738a6.7,6.7,0,0,1-5.75-6.631V41.3a6.7,6.7,0,0,1,5.58-6.6V31.251a31.251,31.251,0,1,1,62.5,0v3.441a6.7,6.7,0,0,1,5.58,6.6v7.812a6.7,6.7,0,0,1-5.75,6.631A31.273,31.273,0,0,1,69.2,80.7V91.046a45.2,45.2,0,0,1,42.412,45.117Z"/></clipPath><clipPath id="c"><path class="c" d="M111.609,44.523H0A45.167,45.167,0,0,1,37.493,0a7.873,7.873,0,0,0-.1,1.274c0,6.616,8.386,12,18.695,12s18.695-5.382,18.695-12A7.872,7.872,0,0,0,74.69.1,44.778,44.778,0,0,1,89.321,5.567a45.1,45.1,0,0,1,22.288,38.955Z" transform="translate(0 0)"/></clipPath><clipPath id="d"><rect class="d" width="147.324" height="156.253"/></clipPath><clipPath id="e"><path class="e" d="M9.485,149v0l-.553,0a22.984,22.984,0,0,1-5.094-3.831A15,15,0,0,1,2.2,143.178l-.011-.016-.02-.03a12.491,12.491,0,0,1-1.4-2.732l0-.01-.021-.058c-4.026-11.346,10.846-24.55,11.066-29.8h0c0-.014,0-.028,0-.042s0-.035,0-.052v-.015q0-.023,0-.045c0-.009,0-.017,0-.026s0-.014,0-.022c0-2.24-1.432-3.87-3.344-5.765a31.327,31.327,0,0,1-5.908-7.018A19.24,19.24,0,0,1,.591,92.388l-.007-.03-.007-.032A25.185,25.185,0,0,1,0,86.592c0-.031,0-.063,0-.094s0-.067,0-.1V86.38c0-.028,0-.057,0-.085v-.017c0-.029,0-.057,0-.086V86.18c0-.031,0-.062,0-.094h0C.434,77.89,5.174,74.3,9.56,71.253l.017-.012.02-.014.089-.062.009-.006.722-.5.012-.008.026-.018a21.335,21.335,0,0,0,5.372-4.666l0-.011a8.354,8.354,0,0,0,1.591-5.13c.094-10.6-6.356-14.978,0-35.158C23.906,5.324,40.691.428,64.734.009V0l.279,0,.279,0V.009c24.044.419,40.828,5.315,47.322,25.661,5.424,17.221,1.522,22.932.32,30.826l0,.006a27.117,27.117,0,0,0-.312,3.511c0,.019,0,.039,0,.058s0,.04,0,.061c0,.035,0,.071,0,.106v.02q0,.21,0,.424h0c0,.048,0,.1,0,.146,0,.021,0,.041,0,.062,0,0,0,.007,0,.011s0,.035,0,.052,0,.006,0,.009c.018,4.4,2.766,6.729,6.17,9.123.957.674,1.959,1.347,2.954,2.065l.028.021.006,0c3.975,2.878,7.861,6.526,8.236,13.911v0c0,.032,0,.064,0,.1v.007q0,.043,0,.086V86.3c0,.028,0,.057,0,.085V86.4c0,.034,0,.067,0,.1s0,.064,0,.1,0,.034,0,.052,0,.029,0,.043,0,.048,0,.072c0,.007,0,.014,0,.02,0,.027,0,.053,0,.079q0,.006,0,.012c-.02,8.528-3.615,12.849-6.835,16.078-.332.333-.66.654-.981.968-2.217,2.172-3.981,3.9-4,6.365,0,.007,0,.014,0,.021s0,.015,0,.023,0,.024,0,.035,0,.009,0,.014,0,.034,0,.051v.012c0,.018,0,.036,0,.054.141,5.319,15.7,18.987,10.807,30.509a12.56,12.56,0,0,1-.957,1.815l-.012.019-.028.044a14.776,14.776,0,0,1-1.833,2.289A22.962,22.962,0,0,1,121.1,149a45.262,45.262,0,0,0-42.412-45.116V93.534A31.356,31.356,0,0,0,96.425,68.008a6.737,6.737,0,0,0,5.7-6.622V54.131a6.828,6.828,0,0,0-.065-.935c-12.009-6.466-22.318-15.727-29.04-26.24-10.091,14.3-30.311,16.872-44.433,25.881a6.749,6.749,0,0,0-.124,1.294v7.255a6.737,6.737,0,0,0,5.7,6.622A31.356,31.356,0,0,0,51.9,93.534v10.348A45.252,45.252,0,0,0,9.487,149Z"/></clipPath><clipPath id="f"><path class="d" d="M9.485,149v0l-.552,0q-.686-.392-1.311-.793l-.005,0-.045-.029a22.146,22.146,0,0,1-3.26-2.536,15.238,15.238,0,0,1-2.25-2.671l-.038-.058,0,0a12.423,12.423,0,0,1-1.25-2.5l0-.012-.02-.055c-3.993-11.253,10.6-24.334,11.058-29.667h0c0-.014,0-.027,0-.041v-.006c0-.011,0-.022,0-.034v-.011c0-.01,0-.02,0-.03v-.013c0-.01,0-.021,0-.031v-.019c0-.012,0-.024,0-.036v-.022c0-.012,0-.023,0-.034s0-.024,0-.036,0-.014,0-.02c0-2.056-1.206-3.6-2.882-5.3-2.172-2.212-5.091-4.644-6.993-8.69l-.007-.016-.026-.056-.025-.055L1.877,96.2l-.029-.063,0-.006q-.349-.768-.632-1.574l0-.011-.023-.065,0-.014L1.16,94.4l-.021-.063,0-.007A23.467,23.467,0,0,1,0,86.685q0-.011,0-.023c0-.023,0-.045,0-.068s0-.064,0-.1c.287-8.836,5.5-12.442,10.105-15.622a22.7,22.7,0,0,0,5.72-4.908l0-.011a8.354,8.354,0,0,0,1.591-5.13c.094-10.6-6.356-14.978,0-35.158C23.906,5.324,40.691.428,64.734.009V0l.279,0,.279,0V.009c24.044.419,40.828,5.315,47.322,25.661,5.424,17.221,1.522,22.932.32,30.826l0,.006a27.234,27.234,0,0,0-.309,3.389v.035c0,.023,0,.047,0,.071s0,.066,0,.1v.028c0,.041,0,.081,0,.123v.008q0,.212,0,.427s0,0,0,0c0,.046,0,.094,0,.14,0,0,0,0,0,0s0,.009,0,.014,0,.032,0,.048,0,.007,0,.011,0,.035,0,.053v.005c.018,4.881,3.4,7.216,7.306,9.917,4.6,3.181,9.818,6.786,10.105,15.622q0,.049,0,.1c0,.011,0,.023,0,.033s0,.04,0,.06,0,.045,0,.067,0,.016,0,.024c0,.027,0,.054,0,.08,0,0,0,.007,0,.01-.024,10.6-5.576,14.7-9.06,18.286-1.582,1.625-2.717,3.116-2.757,5.067v.007c0,.013,0,.025,0,.038s0,.024,0,.036,0,.015,0,.023,0,.022,0,.034,0,.011,0,.016,0,.031,0,.047v.019c0,.013,0,.026,0,.038v.018c0,.011,0,.022,0,.033v.011c0,.011,0,.022,0,.033v.008c0,.013,0,.025,0,.038v0c.386,5.411,15.656,18.953,10.8,30.383l-.019.044-.006.013a12.529,12.529,0,0,1-.83,1.592,15,15,0,0,1-2.452,2.987l-.049.047,0,0a22.226,22.226,0,0,1-3.205,2.483l-.031.02-.043.028c-.407.26-.835.52-1.281.774a45.264,45.264,0,0,0-42.412-45.116V78.127H51.9v25.755A45.252,45.252,0,0,0,9.487,149Z"/></clipPath><clipPath id="g"><path class="a" d="M.259,88.324c-4.578,72.207,52.366,70.041,100.261,85.7,83.42,27.273,79.447,162.083,144.645,152.937,48.287-6.773,98.94-97.814,86.2-176.157C320.274,82.579,276.138,39.162,201.586,11.4,122.186-18.176,5.187,10.617.259,88.324Z" transform="matrix(-0.545, 0.839, -0.839, -0.545, 456.146, 178.318)"/></clipPath><clipPath id="h"><path class="b" d="M0,172.226A57.177,57.177,0,0,1,53.645,115.16V102.073A39.557,39.557,0,0,1,31.273,70.5,8.472,8.472,0,0,1,24,62.114V52.232a8.472,8.472,0,0,1,7.059-8.353V39.527a39.527,39.527,0,0,1,79.054,0V43.88a8.472,8.472,0,0,1,7.059,8.353v9.882A8.471,8.471,0,0,1,109.9,70.5a39.555,39.555,0,0,1-22.371,31.572V115.16a57.177,57.177,0,0,1,53.644,57.066Z"/></clipPath><clipPath id="i"><path class="c" d="M141.169,56.875H0A57.142,57.142,0,0,1,51.631,0a16.6,16.6,0,0,0-.1,1.856c0,9.73,8.549,17.646,19.058,17.646S89.642,11.586,89.642,1.856A16.609,16.609,0,0,0,89.538,0a57.142,57.142,0,0,1,51.631,56.876Z" transform="translate(0 0)"/></clipPath><clipPath id="j"><rect class="d" width="186.343" height="197.636"/></clipPath><clipPath id="k"><path class="f" d="M79.534,20.433C83.35,16.939,84.269,9.855,82.1,5.258,79.442-.385,74.044-1.093,68.871,1.39,64,3.729,59.655,4.509,54.315,3.375,49.191,2.287,44.331.369,39.036.054A28.689,28.689,0,0,0,15.954,9.267a25.234,25.234,0,0,0-2.9,4.1,13.063,13.063,0,0,0-1.76,3.711c-.14.631.12,2.186-.194,2.7-.34.558-1.621,1.07-2.166,1.484a17.658,17.658,0,0,0-2.95,2.857,20.6,20.6,0,0,0-3.789,7.462c-2.9,9.349-3.141,20.468.6,29.648.5,1.224,2.046,3.778,2.955,1.156a14.606,14.606,0,0,0-.235-2.777c0-1.92,1.063-14.631,5.68-21.752,1.5-2.318,8.451-11,9.87-11.067.752,1.195,8.385,8.829,28.193,7.935,8.937-.4,15.81-4.419,17.461-6.16.726,3.905,9.171,9.752,10.457,12.158,3.717,6.949,4.542,21.39,5.961,21.362s2.438-3.7,2.729-4.4c2.168-5.206,2.537-11.74,2.306-17.335C87.869,33.151,84.9,25.369,79.534,20.433Z" transform="translate(0)"/></clipPath><clipPath id="l"><path class="a" d="M1.213,58.485C-1.818,106.3-1.459,149.252,30.256,159.621c55.238,18.059,89.955,62.938,133.126,56.882,31.974-4.485,65.515-64.769,57.08-116.645-7.345-45.177-36.571-73.926-85.936-92.311C81.949-12.035,4.476,7.03,1.213,58.485Z" transform="matrix(-0.174, 0.985, -0.985, -0.174, 252.275, 37.692)"/></clipPath><clipPath id="m"><path class="b" d="M0,149.144A49.514,49.514,0,0,1,46.454,99.725V88.392A34.253,34.253,0,0,1,27.081,61.052a7.336,7.336,0,0,1-6.3-7.262V45.232A7.336,7.336,0,0,1,26.895,38V34.23a34.23,34.23,0,1,1,68.459,0V38a7.337,7.337,0,0,1,6.113,7.234v8.557a7.337,7.337,0,0,1-6.3,7.262A34.253,34.253,0,0,1,75.794,88.392V99.725a49.513,49.513,0,0,1,46.454,49.419Z"/></clipPath><clipPath id="n"><path class="g" d="M122.249,59.248H0a49.508,49.508,0,0,1,27-44.11,13.412,13.412,0,0,1-.106-1.687,10.608,10.608,0,0,1,1.5-5.644,11.962,11.962,0,0,1,4.13-3.921c3.2-1.925,7.76-3.2,13.929-3.886V11.57a14.67,14.67,0,1,0,29.34,0V0c6.17.69,10.726,1.962,13.929,3.886a11.962,11.962,0,0,1,4.13,3.921,10.608,10.608,0,0,1,1.5,5.644,13.41,13.41,0,0,1-.106,1.687,49.508,49.508,0,0,1,27,44.109Z" transform="translate(0 0)"/></clipPath><clipPath id="o"><rect class="d" width="161.369" height="171.149"/></clipPath><clipPath id="p"><path class="e" d="M95.354,118.063V110.4a34.343,34.343,0,0,0,19.432-27.961,7.377,7.377,0,0,0,6.241-7.253V67.237A7.312,7.312,0,0,0,114.914,60V56.235a34.14,34.14,0,0,0-1.356-9.551l.838,7.836-6.932-14.67L79.876,27.916,61.469,34.369,48.328,46.711,48.3,45.135a34.083,34.083,0,0,0-1.847,11.1V60a7.313,7.313,0,0,0-6.112,7.233v7.946a7.378,7.378,0,0,0,6.24,7.253A34.343,34.343,0,0,0,66.014,110.4v6.691a22.286,22.286,0,0,1-23.648-2.976A32.708,32.708,0,0,1,9.445,96a17.45,17.45,0,0,1-7.2-18.162A35.517,35.517,0,0,1,6.783,44.544c-.04-.47-.059-.958-.059-1.451A17.42,17.42,0,0,1,16.567,27.4,33.634,33.634,0,0,1,45.63,7.976,17.329,17.329,0,0,1,57.763,3.056a17.512,17.512,0,0,1,4.127.492,51.553,51.553,0,0,1,36.77-.314,17.979,17.979,0,0,1,2.5-.178,17.328,17.328,0,0,1,12.133,4.919A33.633,33.633,0,0,1,142.356,27.4,17.425,17.425,0,0,1,152.2,43.093c0,.485-.02.974-.059,1.451a35.519,35.519,0,0,1,4.541,33.293A17.45,17.45,0,0,1,149.479,96a32.749,32.749,0,0,1-32.921,18.113,22.345,22.345,0,0,1-21.2,3.951Z"/></clipPath><filter id="q" x="336.389" y="119.468" width="77.017" height="30.34" filterUnits="userSpaceOnUse"><feOffset dy="1" input="SourceAlpha"/><feGaussianBlur result="r"/><feFlood flood-opacity="0.102"/><feComposite operator="in" in2="r"/><feComposite in="SourceGraphic"/></filter></defs><g transform="translate(-66.124 155.817)"><g transform="translate(66.124 240.543)"><path class="a" d="M255.891,67.851c3.517,55.47-40.228,53.806-77.021,65.836C114.785,154.639,117.837,258.2,67.752,251.175c-37.095-5.2-76.007-75.142-66.221-135.326,8.522-52.412,42.427-85.765,99.7-107.095C162.225-13.963,252.105,8.156,255.891,67.851Z" transform="matrix(-0.259, -0.966, 0.966, -0.259, 66.281, 312.461)"/><g class="h" transform="translate(0 0)"><g transform="translate(82.501 129.428)"><g transform="translate(17.857 20.09)"><path class="b" d="M0,136.163A45.2,45.2,0,0,1,42.412,91.046V80.7A31.273,31.273,0,0,1,24.724,55.738a6.7,6.7,0,0,1-5.75-6.631V41.3a6.7,6.7,0,0,1,5.58-6.6V31.251a31.251,31.251,0,1,1,62.5,0v3.441a6.7,6.7,0,0,1,5.58,6.6v7.812a6.7,6.7,0,0,1-5.75,6.631A31.273,31.273,0,0,1,69.2,80.7V91.046a45.2,45.2,0,0,1,42.412,45.117Z"/><g class="i"><g transform="translate(-17.857)"><rect class="j" width="147.324" height="136.163"/><path class="k" d="M0,0H136.163V136.163H0Z"/></g><path class="l" d="M31.251,35.684a31.055,31.055,0,0,1-12.164-2.456,31.147,31.147,0,0,1-9.933-6.7A31.153,31.153,0,0,1,0,4.433V.326A31.359,31.359,0,0,0,31.251,31.219,31.292,31.292,0,0,0,62.5,0V4.433A31.286,31.286,0,0,1,43.415,33.228,31.055,31.055,0,0,1,31.251,35.684Z" transform="translate(24.554 52.487)"/></g></g><path class="c" d="M111.609,44.523H0A45.167,45.167,0,0,1,37.493,0a7.873,7.873,0,0,0-.1,1.274c0,6.616,8.386,12,18.695,12s18.695-5.382,18.695-12A7.872,7.872,0,0,0,74.69.1,44.778,44.778,0,0,1,89.321,5.567a45.1,45.1,0,0,1,22.288,38.955Z" transform="translate(17.857 111.73)"/><g class="m" transform="translate(17.857 111.73)"><g transform="translate(-17.857 -16.862)"><rect class="j" width="147.324" height="61.385"/><rect class="n" width="147.324" height="61.385"/></g><path class="o" d="M36.655,6.922C35.878,3.333,33.19,1.258,29.679.456,28.27.134,23.59-.876,24.319,1.8a2.99,2.99,0,0,1-.867,3.218,2.682,2.682,0,0,1-3.879-.006c-.823-1.058.238-2.635-.4-3.665A.884.884,0,0,0,18.038.938c-.637.275-.3.868-.6,1.293-.474.671-.695.461-1.121-.208-.268-.421,0-.879-.7-1.059-.8-.208-1.062.462-1.134,1.073a12.566,12.566,0,0,0,.188,1.389,5.839,5.839,0,0,1-.4,2.527c-.628,1.193-1.509.811-2.446.053A3.127,3.127,0,0,1,10.61,2.761c.256-1.627.163-3.185-1.83-2.167A18.568,18.568,0,0,0,1.755,7.245C.391,9.488-.683,12.208.525,14.763a9.435,9.435,0,0,0,6.12,5.516c.737.172,2.841,1.01,3.541.308,1.086-1.092-1.422-2.111-1.917-2.776-.7-.943-1.3-2.743-.534-3.807.982-1.355,2.008-.6,2.815.359.634.752,1.534,2.693,2.514,1.129.675-1.078.614-2.847,2.456-2.074,2.631,1.1,2.712,6.2,3.181,8.533.2,1.021,1.136,2.268,1.937.851.44-.779.2-2.468.122-3.272-.166-1.666-.6-3.3-.061-4.954.313-.955,1.116-2.321,2.3-1.587.962.595.561,3.246,1.871,3.241,1.153,0,.839-2.116,1.453-2.812a2.053,2.053,0,0,1,3.3.7c.746,1.688-1.229,2.86-1.14,4.344.086,1.446,1.95.882,2.729.515a8.8,8.8,0,0,0,3.725-3.667c1.344-2.346,2.3-5.7,1.716-8.385" transform="translate(37.389 16.063)"/></g><g transform="translate(49.108 45.761)"><path class="p" d="M0,1.116c0,3,3.437,5.022,7.813,5.022s7.813-2.025,7.813-5.022A1.136,1.136,0,0,0,14.509,0a1.1,1.1,0,0,0-1.116,1.116c-.693,1.639-2.409,2.632-5.58,2.79-3.172-.158-4.887-1.151-5.58-2.79A1.1,1.1,0,0,0,1.116,0,1.136,1.136,0,0,0,0,1.116Z" transform="translate(16.742 36.829)"/><path class="q" d="M0,0C0,2.466,3,4.464,6.7,4.464h0c3.7,0,6.7-2,6.7-4.464" transform="translate(17.858 26.785)"/><circle class="o" cx="7.813" cy="7.813" r="7.813" transform="translate(2.232 8.927)"/><circle class="o" cx="7.813" cy="7.813" r="7.813" transform="translate(31.251 8.927)"/><circle class="r" cx="3.348" cy="3.348" r="3.348" transform="translate(6.697 8.927)"/><circle class="r" cx="3.348" cy="3.348" r="3.348" transform="translate(35.715 8.927)"/><g transform="translate(0 0)"><path class="p" d="M2.219,9.557c.834-5.314,7.859-8.939,12.94-6.6A1.116,1.116,0,0,0,16.092.929C9.682-2.023,1.08,2.416.014,9.21a1.116,1.116,0,1,0,2.205.346Z" transform="translate(0 0)"/><path class="p" d="M-15.478,9.557c-.834-5.314-7.859-8.939-12.94-6.6A1.116,1.116,0,0,1-29.9,2.41,1.116,1.116,0,0,1-29.351.929c6.411-2.952,15.012,1.487,16.079,8.281a1.116,1.116,0,0,1-.929,1.276A1.116,1.116,0,0,1-15.478,9.557Z" transform="translate(62.367 0)"/></g></g><rect class="d" width="147.324" height="156.253"/><g class="s"><g transform="translate(8.371 7.255)"><path class="e" d="M9.485,149v0l-.553,0a22.984,22.984,0,0,1-5.094-3.831A15,15,0,0,1,2.2,143.178l-.011-.016-.02-.03a12.491,12.491,0,0,1-1.4-2.732l0-.01-.021-.058c-4.026-11.346,10.846-24.55,11.066-29.8h0c0-.014,0-.028,0-.042s0-.035,0-.052v-.015q0-.023,0-.045c0-.009,0-.017,0-.026s0-.014,0-.022c0-2.24-1.432-3.87-3.344-5.765a31.327,31.327,0,0,1-5.908-7.018A19.24,19.24,0,0,1,.591,92.388l-.007-.03-.007-.032A25.185,25.185,0,0,1,0,86.592c0-.031,0-.063,0-.094s0-.067,0-.1V86.38c0-.028,0-.057,0-.085v-.017c0-.029,0-.057,0-.086V86.18c0-.031,0-.062,0-.094h0C.434,77.89,5.174,74.3,9.56,71.253l.017-.012.02-.014.089-.062.009-.006.722-.5.012-.008.026-.018a21.335,21.335,0,0,0,5.372-4.666l0-.011a8.354,8.354,0,0,0,1.591-5.13c.094-10.6-6.356-14.978,0-35.158C23.906,5.324,40.691.428,64.734.009V0l.279,0,.279,0V.009c24.044.419,40.828,5.315,47.322,25.661,5.424,17.221,1.522,22.932.32,30.826l0,.006a27.117,27.117,0,0,0-.312,3.511c0,.019,0,.039,0,.058s0,.04,0,.061c0,.035,0,.071,0,.106v.02q0,.21,0,.424h0c0,.048,0,.1,0,.146,0,.021,0,.041,0,.062,0,0,0,.007,0,.011s0,.035,0,.052,0,.006,0,.009c.018,4.4,2.766,6.729,6.17,9.123.957.674,1.959,1.347,2.954,2.065l.028.021.006,0c3.975,2.878,7.861,6.526,8.236,13.911v0c0,.032,0,.064,0,.1v.007q0,.043,0,.086V86.3c0,.028,0,.057,0,.085V86.4c0,.034,0,.067,0,.1s0,.064,0,.1,0,.034,0,.052,0,.029,0,.043,0,.048,0,.072c0,.007,0,.014,0,.02,0,.027,0,.053,0,.079q0,.006,0,.012c-.02,8.528-3.615,12.849-6.835,16.078-.332.333-.66.654-.981.968-2.217,2.172-3.981,3.9-4,6.365,0,.007,0,.014,0,.021s0,.015,0,.023,0,.024,0,.035,0,.009,0,.014,0,.034,0,.051v.012c0,.018,0,.036,0,.054.141,5.319,15.7,18.987,10.807,30.509a12.56,12.56,0,0,1-.957,1.815l-.012.019-.028.044a14.776,14.776,0,0,1-1.833,2.289A22.962,22.962,0,0,1,121.1,149a45.262,45.262,0,0,0-42.412-45.116V93.534A31.356,31.356,0,0,0,96.425,68.008a6.737,6.737,0,0,0,5.7-6.622V54.131a6.828,6.828,0,0,0-.065-.935c-12.009-6.466-22.318-15.727-29.04-26.24-10.091,14.3-30.311,16.872-44.433,25.881a6.749,6.749,0,0,0-.124,1.294v7.255a6.737,6.737,0,0,0,5.7,6.622A31.356,31.356,0,0,0,51.9,93.534v10.348A45.252,45.252,0,0,0,9.487,149Z" transform="translate(0)"/><g class="t" transform="translate(0)"><g transform="translate(-8.371 -7.255)"><rect class="j" width="147.324" height="156.253"/><rect class="u" width="147.324" height="156.253"/></g></g></g><g transform="translate(8.371 7.255)"><path class="d" d="M9.485,149v0l-.552,0q-.686-.392-1.311-.793l-.005,0-.045-.029a22.146,22.146,0,0,1-3.26-2.536,15.238,15.238,0,0,1-2.25-2.671l-.038-.058,0,0a12.423,12.423,0,0,1-1.25-2.5l0-.012-.02-.055c-3.993-11.253,10.6-24.334,11.058-29.667h0c0-.014,0-.027,0-.041v-.006c0-.011,0-.022,0-.034v-.011c0-.01,0-.02,0-.03v-.013c0-.01,0-.021,0-.031v-.019c0-.012,0-.024,0-.036v-.022c0-.012,0-.023,0-.034s0-.024,0-.036,0-.014,0-.02c0-2.056-1.206-3.6-2.882-5.3-2.172-2.212-5.091-4.644-6.993-8.69l-.007-.016-.026-.056-.025-.055L1.877,96.2l-.029-.063,0-.006q-.349-.768-.632-1.574l0-.011-.023-.065,0-.014L1.16,94.4l-.021-.063,0-.007A23.467,23.467,0,0,1,0,86.685q0-.011,0-.023c0-.023,0-.045,0-.068s0-.064,0-.1c.287-8.836,5.5-12.442,10.105-15.622a22.7,22.7,0,0,0,5.72-4.908l0-.011a8.354,8.354,0,0,0,1.591-5.13c.094-10.6-6.356-14.978,0-35.158C23.906,5.324,40.691.428,64.734.009V0l.279,0,.279,0V.009c24.044.419,40.828,5.315,47.322,25.661,5.424,17.221,1.522,22.932.32,30.826l0,.006a27.234,27.234,0,0,0-.309,3.389v.035c0,.023,0,.047,0,.071s0,.066,0,.1v.028c0,.041,0,.081,0,.123v.008q0,.212,0,.427s0,0,0,0c0,.046,0,.094,0,.14,0,0,0,0,0,0s0,.009,0,.014,0,.032,0,.048,0,.007,0,.011,0,.035,0,.053v.005c.018,4.881,3.4,7.216,7.306,9.917,4.6,3.181,9.818,6.786,10.105,15.622q0,.049,0,.1c0,.011,0,.023,0,.033s0,.04,0,.06,0,.045,0,.067,0,.016,0,.024c0,.027,0,.054,0,.08,0,0,0,.007,0,.01-.024,10.6-5.576,14.7-9.06,18.286-1.582,1.625-2.717,3.116-2.757,5.067v.007c0,.013,0,.025,0,.038s0,.024,0,.036,0,.015,0,.023,0,.022,0,.034,0,.011,0,.016,0,.031,0,.047v.019c0,.013,0,.026,0,.038v.018c0,.011,0,.022,0,.033v.011c0,.011,0,.022,0,.033v.008c0,.013,0,.025,0,.038v0c.386,5.411,15.656,18.953,10.8,30.383l-.019.044-.006.013a12.529,12.529,0,0,1-.83,1.592,15,15,0,0,1-2.452,2.987l-.049.047,0,0a22.226,22.226,0,0,1-3.205,2.483l-.031.02-.043.028c-.407.26-.835.52-1.281.774a45.264,45.264,0,0,0-42.412-45.116V78.127H51.9v25.755A45.252,45.252,0,0,0,9.487,149Z" transform="translate(0)"/><g class="v" transform="translate(0)"><path class="q" d="M1.285,41.411a.017.017,0,0,1-.016-.01,7.508,7.508,0,0,0,1.662-4.887A31.4,31.4,0,0,0,1.545,27.79,36.747,36.747,0,0,1,0,18.124a45.752,45.752,0,0,1,2.93-15.1A9.336,9.336,0,0,1,4.742,0C.889,12.832,2.348,18.958,3.76,24.881a35.9,35.9,0,0,1,1.326,9.157,8.578,8.578,0,0,1-.616,3.38c-.4.5-.831,1.077-1.252,1.632A16.481,16.481,0,0,1,1.285,41.411Zm5.184-6.3h0c.235-.33.432-.6.6-.826a31.062,31.062,0,0,1,5.254-5.41,44.871,44.871,0,0,1,6.325-4.266,128.718,128.718,0,0,1,14.482-6.643c10.375-4.255,21.1-8.654,27.56-17.8,8.514,13.319,23.36,24.923,39.713,31.04a2.608,2.608,0,0,0,.106-.764,2.643,2.643,0,0,1,.1-.739c.253-1.662.619-3.2,1.006-4.824,1.411-5.923,2.87-12.048-.982-24.879a9.343,9.343,0,0,1,1.81,3.02,45.751,45.751,0,0,1,2.93,15.1,36.746,36.746,0,0,1-1.544,9.666c-.4,1.549-.787,3.012-1.052,4.595a2.31,2.31,0,0,0-.1.7,2.281,2.281,0,0,1-.111.728A93.69,93.69,0,0,1,90.12,28.535a92.07,92.07,0,0,1-11.362-6.89,81.922,81.922,0,0,1-9.836-8.2,66.251,66.251,0,0,1-7.868-9.2A32.219,32.219,0,0,1,55.248,10a47.543,47.543,0,0,1-7.014,4.46,137.282,137.282,0,0,1-15.988,6.75C22.749,24.755,12.931,28.424,6.469,35.114Z" transform="translate(12.326 26.789)"/></g></g><path class="w" d="M4.788,61.076C17.364,44.38,45.8,44.825,58.409,26.955,67,40.4,81.746,51.87,98.122,58c.168-.476.045-1.032.2-1.5,1.2-7.893,5.1-13.6-.32-30.822C91.512,5.323,74.728.429,50.684.009L50.126,0C26.082.429,9.3,5.323,2.8,25.67c-6.355,20.179.094,24.554,0,35.157a8.357,8.357,0,0,1-1.59,5.13C1.316,66.181,3.531,62.745,4.788,61.076Z" transform="translate(22.979 7.255)"/></g></g></g></g><g transform="translate(428.685 -2.817)"><path class="a" d="M.259,88.324c-4.578,72.207,52.366,70.041,100.261,85.7,83.42,27.273,79.447,162.083,144.645,152.937,48.287-6.773,98.94-97.814,86.2-176.157C320.274,82.579,276.138,39.162,201.586,11.4,122.186-18.176,5.187,10.617.259,88.324Z" transform="matrix(-0.545, 0.839, -0.839, -0.545, 456.146, 178.318)"/><g class="x" transform="translate(0 0)"><g transform="translate(130.512 195.092)"><g transform="translate(22.587 25.41)"><path class="b" d="M0,172.226A57.177,57.177,0,0,1,53.645,115.16V102.073A39.557,39.557,0,0,1,31.273,70.5,8.472,8.472,0,0,1,24,62.114V52.232a8.472,8.472,0,0,1,7.059-8.353V39.527a39.527,39.527,0,0,1,79.054,0V43.88a8.472,8.472,0,0,1,7.059,8.353v9.882A8.471,8.471,0,0,1,109.9,70.5a39.555,39.555,0,0,1-22.371,31.572V115.16a57.177,57.177,0,0,1,53.644,57.066Z"/><g class="y"><g transform="translate(-22.587 0)"><rect class="j" width="186.343" height="172.226"/><path class="z" d="M0,0H172.226V172.226H0Z" transform="translate(0)"/></g><path class="l" d="M39.527,45.137a39.28,39.28,0,0,1-15.386-3.106A39.4,39.4,0,0,1,11.577,33.56,39.4,39.4,0,0,1,0,5.61V.364A39.655,39.655,0,0,0,39.527,39.49,39.578,39.578,0,0,0,79.054-.011V5.61A39.571,39.571,0,0,1,54.913,42.031,39.28,39.28,0,0,1,39.527,45.137Z" transform="translate(31.057 66.386)"/></g></g><path class="c" d="M141.169,56.875H0A57.142,57.142,0,0,1,51.631,0a16.6,16.6,0,0,0-.1,1.856c0,9.73,8.549,17.646,19.058,17.646S89.642,11.586,89.642,1.856A16.609,16.609,0,0,0,89.538,0a57.142,57.142,0,0,1,51.631,56.876Z" transform="translate(22.587 140.761)"/><g class="aa" transform="translate(22.587 140.761)"><g transform="translate(-22.587 -20.768)"><rect class="j" width="186.343" height="77.643"/><rect class="ab" width="186.343" height="77.643"/></g></g><path class="ac" d="M7.982,26.2h0a19.266,19.266,0,0,1-5.829-5.849A13.517,13.517,0,0,1,1.913,6.1,18.628,18.628,0,0,1,7.132.446C7.338.3,7.551.145,7.764,0V10.8c0,3.945,2.659,7.671,7.114,9.966l-.055.043.706,2.224L12.3,22.8,7.982,26.2ZM41.1,25.944h0L37.113,22.8l-3.233.234.706-2.225-.055-.043c4.454-2.295,7.114-6.019,7.114-9.965V.5a18.573,18.573,0,0,1,5.144,5.6,13.5,13.5,0,0,1-.132,14.075A18.977,18.977,0,0,1,41.1,25.944Z" transform="translate(68.467 135.219)"/><g transform="translate(62.114 62.17)"><path class="r" d="M0,0A9.882,9.882,0,0,0,9.882,9.882h0A9.882,9.882,0,0,0,19.764,0" transform="translate(21.175 43.001)"/><path class="q" d="M0,0C0,3.119,3.792,5.647,8.47,5.647h0c4.678,0,8.47-2.528,8.47-5.647" transform="translate(22.587 29.59)"/><circle class="p" cx="4.235" cy="4.235" r="4.235" transform="translate(8.47 12.65)"/><circle class="p" cx="4.235" cy="4.235" r="4.235" transform="translate(45.174 12.65)"/><g transform="translate(0 0)"><path class="p" d="M2.563,7.821C5.326,3.933,12.9,1.752,19.427,3.355A1.412,1.412,0,1,0,20.1.613C12.522-1.248,3.75,1.277.261,6.185a1.412,1.412,0,1,0,2.3,1.636Z" transform="translate(0 0)"/><path class="p" d="M-11.387,7.821c-2.763-3.888-10.339-6.069-16.865-4.466A1.412,1.412,0,0,1-29.96,2.321,1.412,1.412,0,0,1-28.925.613c7.578-1.861,16.351.664,19.839,5.573a1.412,1.412,0,0,1-.333,1.968A1.412,1.412,0,0,1-11.387,7.821Z" transform="translate(70.94 0)"/></g></g><rect class="d" width="186.343" height="197.636"/><g class="ad"><path class="f" d="M79.534,20.433C83.35,16.939,84.269,9.855,82.1,5.258,79.442-.385,74.044-1.093,68.871,1.39,64,3.729,59.655,4.509,54.315,3.375,49.191,2.287,44.331.369,39.036.054A28.689,28.689,0,0,0,15.954,9.267a25.234,25.234,0,0,0-2.9,4.1,13.063,13.063,0,0,0-1.76,3.711c-.14.631.12,2.186-.194,2.7-.34.558-1.621,1.07-2.166,1.484a17.658,17.658,0,0,0-2.95,2.857,20.6,20.6,0,0,0-3.789,7.462c-2.9,9.349-3.141,20.468.6,29.648.5,1.224,2.046,3.778,2.955,1.156a14.606,14.606,0,0,0-.235-2.777c0-1.92,1.063-14.631,5.68-21.752,1.5-2.318,8.451-11,9.87-11.067.752,1.195,8.385,8.829,28.193,7.935,8.937-.4,15.81-4.419,17.461-6.16.726,3.905,9.171,9.752,10.457,12.158,3.717,6.949,4.542,21.39,5.961,21.362s2.438-3.7,2.729-4.4c2.168-5.206,2.537-11.74,2.306-17.335C87.869,33.151,84.9,25.369,79.534,20.433Z" transform="translate(49.409 7.058)"/><g class="ae" transform="translate(49.409 7.058)"><g transform="translate(-49.409 -7.058)"><rect class="j" width="186.343" height="197.636"/><rect class="af" width="186.343" height="197.636"/></g></g><g transform="translate(47.292 64.938)"><path class="ag" d="M17.646,28.94H15.7C5.869,28.94,0,23.531,0,14.47,0,7.148,1.282,0,16.608,0h2.075C34.01,0,35.293,7.148,35.293,14.47,35.293,22.99,28.036,28.94,17.646,28.94Zm-1.14-24.7C2.823,4.235,2.823,9.064,2.823,15.177c0,4.99,2.2,10.939,12.685,10.939h2.138c8.727,0,14.823-4.5,14.823-10.939,0-6.113,0-10.942-13.683-10.942Z" transform="translate(6.353 0)"/><path class="ag" d="M17.646,28.94H15.7C5.869,28.94,0,23.531,0,14.47,0,7.148,1.282,0,16.608,0h2.075C34.01,0,35.293,7.148,35.293,14.47,35.293,22.99,28.036,28.94,17.646,28.94Zm-1.14-24.7C2.823,4.235,2.823,9.064,2.823,15.177c0,4.99,2.2,10.939,12.685,10.939h2.138c8.727,0,14.823-4.5,14.823-10.939,0-6.113,0-10.942-13.683-10.942Z" transform="translate(50.115 0)"/><path class="ag" d="M2.085,4.074C2.573,3.6,7.912,0,22.94,0c12.6,0,15.268,1.308,19.305,3.284l.3.146a12.008,12.008,0,0,0,3.4.64,12,12,0,0,0,3.221-.613C53.764,1.216,58.275,0,68.82,0,83.848,0,89.186,3.6,89.674,4.074A2.06,2.06,0,0,1,91.76,6.111V8.148a2.06,2.06,0,0,1-2.085,2.037s-4.871,0-4.871,2.037-1.385-2.947-1.385-4.074V6.164a37.256,37.256,0,0,0-14.6-2.785c-8.358,0-12.521,1.482-16.092,2.954l.04.1,0,1.4L51.2,11.607l-1.933-.764a9.2,9.2,0,0,0-1.062-.318,9.79,9.79,0,0,0-4.23-.195,5.587,5.587,0,0,0-1.335.446l-1.865.911L38.911,8.044l.083-1.62.057-.138C35.971,4.852,33.132,3.378,22.94,3.378a37.262,37.262,0,0,0-14.6,2.785V8.148c0,1.126-2.085,6.111-2.085,4.074s-4.171-2.037-4.171-2.037A2.061,2.061,0,0,1,0,8.148V6.111A2.061,2.061,0,0,1,2.085,4.074Z" transform="translate(0 0)"/></g></g></g></g></g><g transform="translate(298.514 -155.817)"><path class="a" d="M.172,58.485C-2.86,106.3,34.847,104.864,66.561,115.233,121.8,133.293,119.169,222.559,162.34,216.5c31.974-4.485,65.515-64.769,57.08-116.645-7.345-45.177-36.571-73.926-85.936-92.311C80.907-12.035,3.434,7.03.172,58.485Z" transform="matrix(-0.174, 0.985, -0.985, -0.174, 252.094, 38.718)"/><g class="ah" transform="translate(0 0)"><g transform="translate(61.823 65.678)"><g transform="translate(19.56 22.005)"><path class="b" d="M0,149.144A49.514,49.514,0,0,1,46.454,99.725V88.392A34.253,34.253,0,0,1,27.081,61.052a7.336,7.336,0,0,1-6.3-7.262V45.232A7.336,7.336,0,0,1,26.895,38V34.23a34.23,34.23,0,1,1,68.459,0V38a7.337,7.337,0,0,1,6.113,7.234v8.557a7.337,7.337,0,0,1-6.3,7.262A34.253,34.253,0,0,1,75.794,88.392V99.725a49.513,49.513,0,0,1,46.454,49.419Z"/><g class="ai"><g transform="translate(-19.56)"><rect class="j" width="161.369" height="149.144"/><path class="aj" d="M0,0H149.144V149.144H0Z"/></g><path class="l" d="M34.23,39.089A34.015,34.015,0,0,1,20.906,36.4a34.116,34.116,0,0,1-10.88-7.336A34.124,34.124,0,0,1,0,4.858V.341A34.345,34.345,0,0,0,34.23,34.2,34.274,34.274,0,0,0,68.459,0V4.858A34.269,34.269,0,0,1,47.553,36.4,34.015,34.015,0,0,1,34.23,39.089Z" transform="translate(26.895 57.488)"/></g></g><path class="g" d="M122.249,59.248H0a49.508,49.508,0,0,1,27-44.11,13.412,13.412,0,0,1-.106-1.687,10.608,10.608,0,0,1,1.5-5.644,11.962,11.962,0,0,1,4.13-3.921c3.2-1.925,7.76-3.2,13.929-3.886V11.57a14.67,14.67,0,1,0,29.34,0V0c6.17.69,10.726,1.962,13.929,3.886a11.962,11.962,0,0,1,4.13,3.921,10.608,10.608,0,0,1,1.5,5.644,13.41,13.41,0,0,1-.106,1.687,49.508,49.508,0,0,1,27,44.109Z" transform="translate(19.56 111.901)"/><g class="ak" transform="translate(19.56 111.901)"><g transform="translate(-19.56 -7.989)"><rect class="j" width="161.369" height="67.237"/><rect class="al" width="161.369" height="67.237"/></g><path class="am" d="M4.279,31.693H0V0A39.562,39.562,0,0,0,4.279,2.194v29.5ZM43.093,26.8a2.142,2.142,0,0,1-2.139-2.139V2.194A39.557,39.557,0,0,0,45.232,0V24.664A2.142,2.142,0,0,1,43.093,26.8Z" transform="translate(38.508 27.555)"/><path class="q" d="M41.233,33.784h0a44.953,44.953,0,0,0,22.989-6.606c6.871-4.382,10.656-10.049,10.656-15.959,0-5.28-2.991-8.949-9.144-11.218C76.205,1.981,81.3,5.9,81.3,11.97a13.086,13.086,0,0,1-3.475,8.492A30.042,30.042,0,0,1,68.642,27.4C60.994,31.367,51,33.7,41.233,33.784Zm-1.17,0C30.292,33.7,20.3,31.367,12.654,27.4a30.042,30.042,0,0,1-9.179-6.935A13.086,13.086,0,0,1,0,11.97C0,5.9,5.091,1.981,15.563,0,9.41,2.269,6.418,5.938,6.418,11.218c0,5.909,3.784,11.577,10.656,15.959a44.953,44.953,0,0,0,22.989,6.606Z" transform="translate(20.477 -0.211)"/></g><g transform="translate(53.79 53.837)"><path class="p" d="M0,1.222c0,3.283,3.764,5.5,8.557,5.5s8.557-2.218,8.557-5.5A1.244,1.244,0,0,0,15.892,0,1.2,1.2,0,0,0,14.67,1.222c-.759,1.8-2.639,2.883-6.112,3.056C5.084,4.105,3.2,3.018,2.445,1.222A1.2,1.2,0,0,0,1.222,0,1.244,1.244,0,0,0,0,1.222Z" transform="translate(18.337 36.627)"/><path class="q" d="M0,0C0,2.7,3.284,4.89,7.335,4.89h0C11.386,4.89,14.67,2.7,14.67,0" transform="translate(19.56 25.625)"/><path class="p" d="M.1-7.051A7.3,7.3,0,0,0,6.722-3.11a7.306,7.306,0,0,0,6.612-3.916c.337-.686-.143-1.247-.626-.831A9.2,9.2,0,0,1,6.722-5.765,9.246,9.246,0,0,1,.879-7.738C.334-8.184-.232-7.73.1-7.051Z" transform="translate(2.445 25.067)"/><path class="p" d="M.1-7.051A7.3,7.3,0,0,0,6.722-3.11a7.306,7.306,0,0,0,6.612-3.916c.337-.686-.143-1.247-.626-.831A9.2,9.2,0,0,1,6.722-5.765,9.246,9.246,0,0,1,.879-7.738C.334-8.184-.232-7.73.1-7.051Z" transform="translate(37.897 25.067)"/><g transform="translate(0 0)"><path class="p" d="M2.219,6.773c2.393-3.367,8.953-5.255,14.6-3.868A1.222,1.222,0,1,0,17.407.531C10.844-1.081,3.247,1.106.226,5.356A1.222,1.222,0,1,0,2.219,6.773Z" transform="translate(0 0)"/><path class="p" d="M-13.882,6.773c-2.393-3.367-8.953-5.255-14.6-3.868a1.222,1.222,0,0,1-1.479-.9,1.222,1.222,0,0,1,.9-1.479c6.563-1.612,14.159.575,17.18,4.826a1.222,1.222,0,0,1-.288,1.7A1.222,1.222,0,0,1-13.882,6.773Z" transform="translate(65.453 0)"/></g></g><rect class="d" width="161.369" height="171.149"/><g class="an"><path class="e" d="M95.354,118.063V110.4a34.343,34.343,0,0,0,19.432-27.961,7.377,7.377,0,0,0,6.241-7.253V67.237A7.312,7.312,0,0,0,114.914,60V56.235a34.14,34.14,0,0,0-1.356-9.551l.838,7.836-6.932-14.67L79.876,27.916,61.469,34.369,48.328,46.711,48.3,45.135a34.083,34.083,0,0,0-1.847,11.1V60a7.313,7.313,0,0,0-6.112,7.233v7.946a7.378,7.378,0,0,0,6.24,7.253A34.343,34.343,0,0,0,66.014,110.4v6.691a22.286,22.286,0,0,1-23.648-2.976A32.708,32.708,0,0,1,9.445,96a17.45,17.45,0,0,1-7.2-18.162A35.517,35.517,0,0,1,6.783,44.544c-.04-.47-.059-.958-.059-1.451A17.42,17.42,0,0,1,16.567,27.4,33.634,33.634,0,0,1,45.63,7.976,17.329,17.329,0,0,1,57.763,3.056a17.512,17.512,0,0,1,4.127.492,51.553,51.553,0,0,1,36.77-.314,17.979,17.979,0,0,1,2.5-.178,17.328,17.328,0,0,1,12.133,4.919A33.633,33.633,0,0,1,142.356,27.4,17.425,17.425,0,0,1,152.2,43.093c0,.485-.02.974-.059,1.451a35.519,35.519,0,0,1,4.541,33.293A17.45,17.45,0,0,1,149.479,96a32.749,32.749,0,0,1-32.921,18.113,22.345,22.345,0,0,1-21.2,3.951Z" transform="translate(0 0)"/><g class="ao" transform="translate(0 0)"><g transform="translate(0 0)"><rect class="j" width="161.369" height="171.149"/><rect class="ap" width="161.369" height="171.149"/></g></g><path class="aq" d="M.386,36.66h0A29.965,29.965,0,0,1,0,31.878,29.586,29.586,0,0,1,2.714,19.47a31.761,31.761,0,0,1,7.4-10.133A34.712,34.712,0,0,1,21.093,2.505a37.32,37.32,0,0,1,26.885,0A34.712,34.712,0,0,1,58.956,9.337a31.761,31.761,0,0,1,7.4,10.133,29.746,29.746,0,0,1,2.329,17.186c-2.519-15.445-17.2-27.093-34.15-27.093S2.9,21.212.386,36.66Z" transform="translate(45.843 23.839)"/><g class="bb" transform="matrix(1, 0, 0, 1, -294.21, -65.68)"><path class="ag" d="M57.457,29.34a14.67,14.67,0,0,1-14.67-14.67,14.779,14.779,0,0,1,.221-2.547,4.761,4.761,0,0,0-4.583-4.788,4.711,4.711,0,0,0-4.536,4.175,14.808,14.808,0,0,1,.341,3.16A14.67,14.67,0,1,1,5.523,10.391h-4a1.528,1.528,0,0,1,0-3.056h4.89a1.516,1.516,0,0,1,.4.054,14.674,14.674,0,0,1,25.829.652,6.87,6.87,0,0,1,11.643.146,14.674,14.674,0,0,1,25.9-.8,1.528,1.528,0,0,1,.4-.054h4.891a1.528,1.528,0,0,1,0,3.056h-4A14.674,14.674,0,0,1,57.457,29.34Zm0-26.895A12.225,12.225,0,1,0,69.682,14.67,12.239,12.239,0,0,0,57.457,2.445Zm-37.9,0A12.225,12.225,0,1,0,31.784,14.67,12.239,12.239,0,0,0,19.56,2.445Z" transform="translate(336.39 119.47)"/></g></g></g></g></g><rect class="ar" width="8.372" height="69.037" rx="2.29" transform="translate(570.444 179.664)"/><rect class="ar" width="4.702" height="22.728" rx="1.5" transform="translate(292.07 125.584)"/><rect class="as" width="5.294" height="39.561" rx="1.69" transform="translate(291.899 167.191)"/><rect class="ar" width="5.043" height="39.902" rx="1.61" transform="translate(291.98 220.589)"/><rect class="at" width="280.225" height="569.521" rx="35.69" transform="translate(294.733 50.473)"/><rect class="ar" width="39.131" height="7.95" rx="2.54" transform="translate(407.814 67.476)"/><circle class="ar" cx="4.507" cy="4.507" r="4.507" transform="translate(452.864 66.949)"/><path class="ar" d="M666.967,127.935V623.263a22.257,22.257,0,0,1-22.257,22.249h-201.1a22.257,22.257,0,0,1-22.257-22.249V127.935a22.257,22.257,0,0,1,22.257-22.257H473.7v3.865a18.335,18.335,0,0,0,18.327,18.319H594.341a18.327,18.327,0,0,0,18.327-18.327V105.67h32.083A22.257,22.257,0,0,1,666.967,127.935Z" transform="translate(-109.313 -40.37)"/><rect class="as" width="25.172" height="3.248" transform="translate(319.061 112.649)"/><rect class="as" width="25.172" height="3.248" transform="translate(319.061 118.333)"/><rect class="as" width="25.172" height="3.248" transform="translate(319.061 124.017)"/><rect class="au" width="25.172" height="3.248" transform="translate(319.061 112.649)"/><rect class="au" width="25.172" height="3.248" transform="translate(319.061 118.333)"/><rect class="au" width="25.172" height="3.248" transform="translate(319.061 124.017)"/><path class="au" d="M706.961,171.635h-.739l-.284-.235a6.179,6.179,0,0,0,1.445-3.971,6.041,6.041,0,1,0-6.009,6.074,6.276,6.276,0,0,0,3.962-1.445l.276.227v.747l4.661,4.677,1.4-1.4Zm-5.587,0a4.182,4.182,0,1,1,2.971-1.231,4.206,4.206,0,0,1-2.971,1.231Z" transform="translate(-160.812 -50.85)"/><path class="av" d="M666.967,465.3V690.885a22.257,22.257,0,0,1-22.257,22.249h-201.1a22.257,22.257,0,0,1-22.257-22.249V465.738a967.525,967.525,0,0,0,245.618-.438Z" transform="translate(-109.313 -107.976)"/><circle class="aw" cx="3.248" cy="3.248" r="3.248" transform="translate(406.758 307.946)"/><circle class="ax" cx="3.248" cy="3.248" r="3.248" transform="translate(421.374 307.946)"/><circle class="aw" cx="3.248" cy="3.248" r="3.248" transform="translate(435.991 307.946)"/><circle class="aw" cx="3.248" cy="3.248" r="3.248" transform="translate(450.607 307.946)"/><path class="ay" d="M467.37,330.353l2.436-110.75a6.553,6.553,0,0,1,5.928-6.374,836.155,836.155,0,0,1,157.6,0,6.553,6.553,0,0,1,5.96,6.5V330.459A6.545,6.545,0,0,1,633.061,337c-54.292,2.55-107.495,2.672-159.455,0A6.545,6.545,0,0,1,467.37,330.353Z" transform="translate(-117.964 -59.89)"/><path class="az" d="M718.428,215.83V341.4q-8.745-.755-17.426-1.624a6.5,6.5,0,0,1-5.887-6.967L702.838,222.3a6.545,6.545,0,0,1,6.228-6.082Q713.743,216.009,718.428,215.83Z" transform="translate(-160.774 -61.079)"/><path class="az" d="M421.44,215.83V341.4q8.745-.755,17.426-1.624a6.5,6.5,0,0,0,5.887-6.967L437.031,222.3a6.545,6.545,0,0,0-6.228-6.082Q426.125,216.009,421.44,215.83Z" transform="translate(-109.33 -61.079)"/><rect class="ax" width="60.089" height="13.804" rx="2.25" transform="translate(367.376 173.558)"/><rect class="ba" width="137.23" height="6.496" rx="2.25" transform="translate(367.782 197.512)"/><rect class="ba" width="137.23" height="6.496" rx="2.25" transform="translate(367.782 214.564)"/><rect class="ba" width="90.945" height="6.496" rx="2.25" transform="translate(367.782 231.617)"/><path class="o" d="M490.5,583.173a15.309,15.309,0,0,1-4.393,1.21,7.746,7.746,0,0,0,3.37-4.239A15.314,15.314,0,0,1,484.6,582a7.674,7.674,0,0,0-13.057,6.983,21.721,21.721,0,0,1-15.794-8.015,7.754,7.754,0,0,0-1.031,3.857,7.666,7.666,0,0,0,3.419,6.383,7.519,7.519,0,0,1-3.484-.959v.1a7.665,7.665,0,0,0,6.147,7.519,7.878,7.878,0,0,1-2.014.268,7.1,7.1,0,0,1-1.445-.146,7.673,7.673,0,0,0,7.162,5.327,15.322,15.322,0,0,1-9.517,3.248,15.123,15.123,0,0,1-1.827-.114,21.4,21.4,0,0,0,11.725,3.516c14.1,0,21.819-11.693,21.819-21.827v-.991A15.426,15.426,0,0,0,490.5,583.173Z" transform="translate(-115.293 -129.463)"/><path class="o" d="M676.216,582.04a6.35,6.35,0,0,1,6.326,6.326v12.651a6.35,6.35,0,0,1-6.326,6.326H663.549a6.35,6.35,0,0,1-6.326-6.326V588.349a6.35,6.35,0,0,1,6.326-6.326h12.667m0-2.534H663.549a8.883,8.883,0,0,0-8.859,8.859v12.667a8.883,8.883,0,0,0,8.859,8.859h12.667a8.883,8.883,0,0,0,8.859-8.859V588.349a8.883,8.883,0,0,0-8.859-8.843Z" transform="translate(-153.178 -129.442)"/><path class="o" d="M679.866,589.54a1.892,1.892,0,1,1,1.343-.551A1.9,1.9,0,0,1,679.866,589.54Zm-8.226,1.283a5.067,5.067,0,1,1-5.067,5.067,5.067,5.067,0,0,1,5.067-5.067m0-2.525a3.147,3.147,0,1,0,0-.016Z" transform="translate(-154.936 -130.617)"/><g transform="translate(423.005 450.635)"><path class="o" d="M17.987,30.928c-1.048,0-2.144,0-3.025,0h-.038c-.964,0-1.96,0-2.947,0-.918,0-1.731,0-2.485,0H9.351c-.343,0-.693,0-1.03-.009H8.309c-.249,0-.507-.007-.761-.008a10.027,10.027,0,0,1-3.057-.449A6.052,6.052,0,0,1,2.632,29.45,6.681,6.681,0,0,1,.773,27.2,7.011,7.011,0,0,1,.14,25.122,13.006,13.006,0,0,1,.006,23.28q0-.109-.006-.218L.01,7.848A11.366,11.366,0,0,1,.327,4.9,6.589,6.589,0,0,1,4.351.5,8.056,8.056,0,0,1,6.17.091,13.157,13.157,0,0,1,7.6.019l.276,0a.043.043,0,0,0,0-.006V0H23.026a.031.031,0,0,0,.005.014h.018A11.538,11.538,0,0,1,26,.332a6.413,6.413,0,0,1,2.808,1.6A6.714,6.714,0,0,1,30.1,3.651a6.71,6.71,0,0,1,.627,1.926,9.464,9.464,0,0,1,.153,1.661c0,.2.029,15.508.029,15.641v.182a12.511,12.511,0,0,1-.267,2.706,6.466,6.466,0,0,1-2.051,3.421,6.3,6.3,0,0,1-3.1,1.511,11.107,11.107,0,0,1-1.853.2C21.982,30.918,20.243,30.928,17.987,30.928ZM15.42,26.09h0c.053,0,.113,0,.172,0a5.034,5.034,0,0,0,3.048-1.2,4.377,4.377,0,0,1,1.736-.887,5.633,5.633,0,0,1,.915-.077,6.287,6.287,0,0,1,1.269.134,2.692,2.692,0,0,0,.481.061h.027a.316.316,0,0,0,.334-.25c.05-.171.087-.331.129-.522.091-.42.158-.677.317-.7,1.692-.261,2.69-.644,2.888-1.108a.425.425,0,0,0,.036-.148.272.272,0,0,0-.228-.283c-3.251-.536-4.7-3.851-4.76-3.992l0-.008,0-.006a1.213,1.213,0,0,1-.116-1.016c.218-.514.94-.742,1.417-.894.124-.039.235-.075.32-.109.863-.34,1.039-.694,1.035-.93a.75.75,0,0,0-.568-.616l-.007,0a1.068,1.068,0,0,0-.4-.077.858.858,0,0,0-.354.07,2.867,2.867,0,0,1-1.082.3.936.936,0,0,1-.6-.2c.01-.189.022-.38.036-.6l0-.074v0c.1-1.543.218-3.463-.273-4.565a5.942,5.942,0,0,0-5.518-3.555l-.456,0A5.932,5.932,0,0,0,9.709,8.39c-.491,1.1-.371,3.022-.274,4.565.014.206.027.427.041.677a.965.965,0,0,1-.661.2,2.78,2.78,0,0,1-1.148-.3.653.653,0,0,0-.278-.056.945.945,0,0,0-.918.6c-.093.487.6.841,1.026,1.008.087.035.192.068.321.109.477.151,1.2.38,1.417.894a1.217,1.217,0,0,1-.115,1.017l0,.009,0,0A8.036,8.036,0,0,1,7.9,19a5.911,5.911,0,0,1-3.55,2.111.27.27,0,0,0-.227.283.446.446,0,0,0,.035.147c.2.466,1.2.85,2.89,1.111.158.024.225.282.318.7.032.15.072.336.128.525a.331.331,0,0,0,.361.259,2.811,2.811,0,0,0,.481-.069,6.212,6.212,0,0,1,1.269-.144,5.553,5.553,0,0,1,.915.078,4.374,4.374,0,0,1,1.736.886h0a5.028,5.028,0,0,0,3.046,1.2C15.348,26.094,15.386,26.093,15.42,26.09Z" transform="translate(0 0)"/><path class="d" d="M147.553,39.443h30.9v30.9h-30.9Z" transform="translate(-147.553 -39.434)"/></g></g></svg>