<svg xmlns="http://www.w3.org/2000/svg" width="22.368" height="22.368" viewBox="0 0 22.368 22.368"><defs><style>.a{fill:#fff;}</style></defs><g transform="translate(-501.512 -450.048)"><path class="a" d="M670.537,581.367a4.675,4.675,0,0,1,4.657,4.657v9.313a4.675,4.675,0,0,1-4.656,4.656h-9.325a4.674,4.674,0,0,1-4.656-4.656v-9.325a4.674,4.674,0,0,1,4.656-4.656h9.325m0-1.865h-9.325a6.539,6.539,0,0,0-6.522,6.521v9.325a6.539,6.539,0,0,0,6.522,6.521h9.325a6.54,6.54,0,0,0,6.521-6.522v-9.325a6.54,6.54,0,0,0-6.521-6.51Z" transform="translate(-153.178 -129.442)"/><path class="a" d="M675.69,588.537a1.393,1.393,0,1,1,.989-.406A1.4,1.4,0,0,1,675.69,588.537Zm-6.055.945a3.73,3.73,0,1,1-3.73,3.73,3.73,3.73,0,0,1,3.73-3.73m0-1.859a2.317,2.317,0,1,0,0-.012Z" transform="translate(-156.939 -131.956)"/></g></svg>