<svg xmlns="http://www.w3.org/2000/svg" width="23.127" height="23.145" viewBox="0 0 23.127 23.145"><defs><style>.a{fill:#fff;}.b{fill:none;}</style></defs><path class="a" d="M13.461,23.145c-.784,0-1.6,0-2.263,0h-.028l-2.205,0c-.687,0-1.3,0-1.859,0H7c-.257,0-.518,0-.771-.007H6.218l-.57-.006a7.5,7.5,0,0,1-2.287-.336,4.529,4.529,0,0,1-1.391-.754A5,5,0,0,1,.579,20.357,5.247,5.247,0,0,1,.1,18.8,9.733,9.733,0,0,1,0,17.422q0-.082,0-.163L.008,5.873a8.505,8.505,0,0,1,.237-2.2A4.931,4.931,0,0,1,3.256.374,6.029,6.029,0,0,1,4.617.068,9.846,9.846,0,0,1,5.685.014l.206,0a.032.032,0,0,0,0,0V0H17.231a.023.023,0,0,0,0,.011h.013a8.634,8.634,0,0,1,2.209.237,4.8,4.8,0,0,1,2.1,1.2,5.024,5.024,0,0,1,.963,1.285,5.022,5.022,0,0,1,.469,1.442A7.082,7.082,0,0,1,23.1,5.417c0,.151.022,11.6.022,11.705v.136a9.362,9.362,0,0,1-.2,2.025,4.839,4.839,0,0,1-1.535,2.56,4.718,4.718,0,0,1-2.324,1.131,8.312,8.312,0,0,1-1.387.147C16.45,23.137,15.148,23.145,13.461,23.145ZM11.54,19.524h0c.039,0,.085,0,.128,0a3.767,3.767,0,0,0,2.281-.9,3.275,3.275,0,0,1,1.3-.664,4.215,4.215,0,0,1,.685-.058,4.7,4.7,0,0,1,.949.1,2.015,2.015,0,0,0,.36.046h.02a.236.236,0,0,0,.25-.187c.037-.128.065-.248.1-.391.068-.314.119-.506.237-.525,1.266-.2,2.013-.482,2.161-.829a.318.318,0,0,0,.027-.111.2.2,0,0,0-.17-.212A5.223,5.223,0,0,1,16.3,12.811l0-.006,0,0a.908.908,0,0,1-.087-.761c.163-.384.7-.556,1.061-.669.093-.03.176-.056.24-.081.646-.255.778-.519.775-.7a.561.561,0,0,0-.425-.461l0,0a.8.8,0,0,0-.3-.058.642.642,0,0,0-.265.052,2.145,2.145,0,0,1-.81.226.7.7,0,0,1-.449-.15c.008-.141.016-.284.027-.45l0-.055v0a8.554,8.554,0,0,0-.2-3.416,4.447,4.447,0,0,0-4.129-2.66l-.341,0A4.439,4.439,0,0,0,7.266,6.279a8.546,8.546,0,0,0-.2,3.416c.01.154.02.32.031.506a.722.722,0,0,1-.495.151,2.08,2.08,0,0,1-.859-.227.489.489,0,0,0-.208-.042.707.707,0,0,0-.687.452c-.069.365.452.629.768.754.065.026.144.051.24.081.357.113.9.284,1.06.669a.911.911,0,0,1-.086.761l0,.007v0a6.014,6.014,0,0,1-.906,1.409A4.423,4.423,0,0,1,3.258,15.8a.2.2,0,0,0-.17.211.334.334,0,0,0,.026.11c.149.348.9.636,2.162.831.118.018.169.211.238.527.024.112.054.252.1.393a.247.247,0,0,0,.27.194,2.1,2.1,0,0,0,.36-.051,4.649,4.649,0,0,1,.95-.108,4.156,4.156,0,0,1,.685.058,3.274,3.274,0,0,1,1.3.663h0a3.763,3.763,0,0,0,2.279.9C11.486,19.527,11.514,19.526,11.54,19.524Z" transform="translate(0 0)"/><path class="b" d="M147.553,39.443H170.68V62.57H147.553Z" transform="translate(-147.553 -39.436)"/></svg>