<svg xmlns="http://www.w3.org/2000/svg" width="23.146" height="23.145" viewBox="0 0 23.146 23.145"><defs><style>.a{fill:#fff;}</style></defs><path class="a" d="M652.828,5581H634.311a2.321,2.321,0,0,0-2.315,2.314v18.516a2.321,2.321,0,0,0,2.315,2.314h18.516a2.321,2.321,0,0,0,2.315-2.314v-18.516A2.321,2.321,0,0,0,652.828,5581Zm-2.662,8.448c-.116,5.323-3.472,9.026-8.564,9.258a8.424,8.424,0,0,1-4.976-1.389,6.149,6.149,0,0,0,4.513-1.273,3.125,3.125,0,0,1-2.893-2.2,4.649,4.649,0,0,0,1.273,0,3.151,3.151,0,0,1-2.43-3.124,2.325,2.325,0,0,0,1.273.348,3.422,3.422,0,0,1-.926-4.166,9.166,9.166,0,0,0,6.365,3.239c-.81-3.239,3.588-4.976,5.323-2.776a7.774,7.774,0,0,0,1.967-.694,3.269,3.269,0,0,1-1.273,1.735,6.611,6.611,0,0,0,1.62-.463C651.323,5588.522,650.745,5588.984,650.166,5589.448Z" transform="translate(-631.997 -5581)"/></svg>